<?xml version="1.0" encoding="UTF-8" standalone="no"?>
<svg width="44px" height="32px" viewBox="0 0 44 32" version="1.1" xmlns="http://www.w3.org/2000/svg" xmlns:xlink="http://www.w3.org/1999/xlink">
    <!-- Generator: sketchtool 39.1 (31720) - http://www.bohemiancoding.com/sketch -->
    <title>A769A73E-981E-4678-AE9C-07F661DDDB1E</title>
    <desc>Created with sketchtool.</desc>
    <defs>
        <rect id="path-1" x="0" y="0" width="1280" height="472"></rect>
        <filter x="-50%" y="-50%" width="200%" height="200%" filterUnits="objectBoundingBox" id="filter-2">
            <feOffset dx="0" dy="1" in="SourceAlpha" result="shadowOffsetOuter1"></feOffset>
            <feColorMatrix values="0 0 0 0 0.847058824   0 0 0 0 0.847058824   0 0 0 0 0.847058824  0 0 0 1 0" type="matrix" in="shadowOffsetOuter1"></feColorMatrix>
        </filter>
        <rect id="path-3" x="0" y="0" width="48" height="48"></rect>
    </defs>
    <g id="web-1.0" stroke="none" stroke-width="1" fill="none" fill-rule="evenodd">
        <g id="1280px-home" transform="translate(-474.000000, -1408.000000)">
            <g id="help" transform="translate(0.000000, 1208.000000)">
                <g id="background">
                    <use fill="black" fill-opacity="1" filter="url(#filter-2)" xlink:href="#path-1"></use>
                    <use fill="#FFFFFF" fill-rule="evenodd" xlink:href="#path-1"></use>
                </g>
                <g id="chip" transform="translate(456.000000, 168.000000)">
                    <circle id="Oval" stroke="#F4F4F4" stroke-width="2" fill="#FFFFFF" cx="40" cy="48" r="40"></circle>
                    <g id="icon" transform="translate(16.000000, 24.000000)">
                        <mask id="mask-4" fill="white">
                            <use xlink:href="#path-3"></use>
                        </mask>
                        <g id="bounds"></g>
                        <g id="code" mask="url(#mask-4)" fill="#000000">
                            <g transform="translate(2.000000, 8.000000)" id="shape">
                                <path d="M13.1928197,29 C12.9862848,29 12.7797499,28.9221307 12.6232352,28.7616246 L0.235982251,16.5568052 C-0.0786607503,16.254863 -0.0786607503,15.7463289 0.235982251,15.4459759 L12.6232352,3.23956726 C12.9378782,2.92014425 13.4477612,2.92014425 13.7640177,3.23956726 C14.0786608,3.54150941 14.0786608,4.05163272 13.7640177,4.36787739 L1.94796289,16.0021851 L13.7640177,27.6349037 C14.0786608,27.9495592 14.0786608,28.4596825 13.7640177,28.7616246 C13.6058895,28.9221307 13.3993546,29 13.1928197,29"></path>
                                <path d="M43.1928197,29 C42.9862848,29 42.7797499,28.9221307 42.6232352,28.7616246 L30.2359823,16.5568052 C29.9213392,16.254863 29.9213392,15.7463289 30.2359823,15.4459759 L42.6232352,3.23956726 C42.9378782,2.92014425 43.4477612,2.92014425 43.7640177,3.23956726 C44.0786608,3.54150941 44.0786608,4.05163272 43.7640177,4.36787739 L31.9479629,16.0021851 L43.7640177,27.6349037 C44.0786608,27.9495592 44.0786608,28.4596825 43.7640177,28.7616246 C43.6058895,28.9221307 43.3993546,29 43.1928197,29" transform="translate(37.000000, 16.000000) rotate(-180.000000) translate(-37.000000, -16.000000) "></path>
                                <path d="M16.8280592,32 C16.7304131,32 16.629457,31.9647609 16.5318109,31.9258125 C16.1048163,31.7421985 15.891319,31.2043392 16.0551658,30.7406674 L26.3990277,0.602001822 C26.5645295,0.119783172 27.0428297,-0.12318084 27.4698243,0.0622878714 C27.8951639,0.247756583 28.1086612,0.785615846 27.9448145,1.24928763 L17.6009525,31.3879533 C17.4735161,31.7588907 17.1607178,32 16.8280592,32"></path>
                            </g>
                        </g>
                    </g>
                </g>
            </g>
        </g>
    </g>
</svg>