<?xml version="1.0" encoding="UTF-8" standalone="no"?>
<svg width="48px" height="48px" viewBox="0 0 48 48" version="1.1" xmlns="http://www.w3.org/2000/svg" xmlns:xlink="http://www.w3.org/1999/xlink">
    <!-- Generator: sketchtool 39.1 (31720) - http://www.bohemiancoding.com/sketch -->
    <title>BFC43FC5-9DE6-4A05-AE23-2775F9F49723</title>
    <desc>Created with sketchtool.</desc>
    <defs>
        <rect id="path-1" x="0" y="0" width="1280" height="472"></rect>
        <filter x="-50%" y="-50%" width="200%" height="200%" filterUnits="objectBoundingBox" id="filter-2">
            <feOffset dx="0" dy="1" in="SourceAlpha" result="shadowOffsetOuter1"></feOffset>
            <feColorMatrix values="0 0 0 0 0.847058824   0 0 0 0 0.847058824   0 0 0 0 0.847058824  0 0 0 1 0" type="matrix" in="shadowOffsetOuter1"></feColorMatrix>
        </filter>
        <rect id="path-3" x="0" y="0" width="48" height="48"></rect>
    </defs>
    <g id="web-1.0" stroke="none" stroke-width="1" fill="none" fill-rule="evenodd">
        <g id="1280px-home" transform="translate(-88.000000, -1400.000000)">
            <g id="help" transform="translate(0.000000, 1208.000000)">
                <g id="background">
                    <use fill="black" fill-opacity="1" filter="url(#filter-2)" xlink:href="#path-1"></use>
                    <use fill="#FFFFFF" fill-rule="evenodd" xlink:href="#path-1"></use>
                </g>
                <g id="chip" transform="translate(72.000000, 168.000000)">
                    <circle id="Oval" stroke="#F4F4F4" stroke-width="2" fill="#FFFFFF" cx="40" cy="48" r="40"></circle>
                    <g id="icon" transform="translate(16.000000, 24.000000)">
                        <mask id="mask-4" fill="white">
                            <use xlink:href="#path-3"></use>
                        </mask>
                        <g id="bounds"></g>
                        <g id="Group" mask="url(#mask-4)" fill="#000000">
                            <g transform="translate(0.000000, -0.500000)">
                                <path d="M32.25,8.10000002 L15.75,8.10000002 C15.336,8.10000002 15,7.74800002 15,7.30160001 C15,6.85360001 15.336,6.5 15.75,6.5 L32.25,6.5 C32.664,6.5 33,6.85360001 33,7.30160001 C33,7.74800002 32.664,8.10000002 32.25,8.10000002" id="Fill-6727"></path>
                                <path d="M13.2007328,38.5 C12.9129913,38.5 12.6348412,38.3546156 12.492569,38.0752816 L4.09211549,21.6909529 C3.88590074,21.3005386 4.03776432,20.8088454 4.42941248,20.5964862 C4.81786352,20.384127 5.30382696,20.5327785 5.50844314,20.939528 L13.9088966,37.3075214 C14.1135128,37.717538 13.9616492,38.2059642 13.5715996,38.4199569 C13.4533059,38.4689629 13.3254208,38.5 13.2007328,38.5" id="Fill-6729"></path>
                                <path d="M43.2007328,38.5 C42.9129913,38.5 42.6348412,38.3546156 42.492569,38.0752816 L34.0921155,21.6909529 C33.8859007,21.3005386 34.0377643,20.8088454 34.4294125,20.5964862 C34.8178635,20.384127 35.303827,20.5327785 35.5084431,20.939528 L43.9088966,37.3075214 C44.1135128,37.717538 43.9616492,38.2059642 43.5715996,38.4199569 C43.4533059,38.4689629 43.3254208,38.5 43.2007328,38.5" id="Fill-6729" transform="translate(39.000000, 29.500000) scale(-1, 1) translate(-39.000000, -29.500000) "></path>
                                <path d="M27.6369231,12.6020619 C26.0584615,12.6020619 24.1076923,13.3718213 22.2230769,14.1095074 C21.5969231,14.3500573 20.9861538,14.5906071 20.4015385,14.7990836 C20.3215385,14.8327606 20.2384615,14.8487973 20.1538462,14.8487973 C17.8846154,14.8487973 17.0769231,16.9640321 17.0769231,18.9525773 L17.0769231,22.3683849 C17.0769231,22.8013746 16.7323077,23.1702176 16.3076923,23.1702176 C15.56,23.1702176 15.5384615,23.202291 15.5384615,24.3729668 L15.5384615,26.3775487 C15.5384615,27.7887743 16.5507692,29.7773196 17.5492308,29.7773196 C17.9738462,29.7773196 18.3184615,30.1317297 18.3184615,30.580756 C18.3184615,33.80252 20.7,37.3947308 23.8876923,37.3947308 L24.1738462,37.3947308 C27.3538462,37.3947308 29.5692308,33.80252 29.5692308,30.580756 C29.5692308,30.1317297 29.9138462,29.7773196 30.3384615,29.7773196 C31.3430769,29.7773196 32.4615385,27.742268 32.4615385,26.3775487 L32.4615385,24.3729668 C32.4615385,23.9560137 31.7846154,23.3305842 31.3169231,23.0595647 C31.0738462,22.9152348 30.9230769,22.6570447 30.9230769,22.3683849 L30.9230769,18.3592211 C30.9230769,13.2611684 29.1661538,12.6020619 27.6369231,12.6020619 L27.6369231,12.6020619 Z M24.1738462,39 L23.8876923,39 C19.9338462,39 17.1123077,35.0549828 16.8076923,31.2526919 C15.0938462,30.6593356 14,28.1271478 14,26.3775487 L14,24.3729668 C14,23.4428408 14,21.9835052 15.5384615,21.6306987 L15.5384615,18.9525773 C15.5384615,15.5848797 17.3338462,13.3092784 20.0215385,13.2435281 C20.5553846,13.0510882 21.1123077,12.826575 21.68,12.6020619 C23.6953846,11.8162658 25.7784615,11 27.6369231,11 C30.8384615,11 32.4615385,13.4680412 32.4615385,18.3592211 L32.4615385,21.9209622 C33.0338462,22.3363116 34,23.2183276 34,24.3729668 L34,26.3775487 C34,28.1415808 32.8123077,30.6769759 31.0815385,31.2526919 C30.7830769,35.0549828 28.0292308,39 24.1738462,39 L24.1738462,39 Z" id="Fill-6730"></path>
                                <path d="M40.2379757,48.5 L7.7620243,48.5 C7.34138688,48.5 7,48.1402116 7,47.6843712 C7,41.1577127 11.2673361,36.5993081 17.3772469,36.5993081 C17.7978843,36.5993081 18.1392711,36.9574685 18.1392711,37.4133089 C18.1392711,37.8528694 17.7978843,38.2256817 17.3772469,38.2256817 C13.1571563,38.2256817 8.90201264,40.8956044 8.54843337,46.8703704 L39.4500426,46.8703704 C39.1162759,41.6770452 35.5804832,38.1280016 30.6227531,38.1280016 C30.2021157,38.1280016 29.8607289,37.7535613 29.8607289,37.3140008 C29.8607289,36.8597884 30.2021157,36.5 30.6227531,36.5 C36.7326639,36.5 41,41.0925926 41,47.6843712 C41,48.1402116 40.6586131,48.5 40.2379757,48.5" id="Fill-6731"></path>
                                <polygon id="Fill-6734" points="0 20.5 10 20.5 10 22.1 0 22.1"></polygon>
                                <polygon id="Fill-6734" points="38 20.5 48 20.5 48 22.1 38 22.1"></polygon>
                                <path d="M38,0.5 C34.6931429,0.5 32,3.05187817 32,6.18527919 C32,8.29695431 33.8617143,16.5 38,16.5 C42.14,16.5 44,8.29695431 44,6.18527919 C44,3.05187817 41.3085714,0.5 38,0.5 L38,0.5 Z M38,2.12436548 C40.3674286,2.12436548 42.2857143,3.92903553 42.2857143,6.18527919 C42.2857143,8.42690355 40.3674286,14.8756345 38,14.8756345 C35.6342857,14.8756345 33.7142857,8.42690355 33.7142857,6.18527919 C33.7142857,3.92903553 35.6342857,2.12436548 38,2.12436548 L38,2.12436548 Z" id="Fill-6735"></path>
                                <path d="M10,0.5 C6.69314286,0.5 4,3.05187817 4,6.18527919 C4,8.29695431 5.86171429,16.5 10,16.5 C14.14,16.5 16,8.29695431 16,6.18527919 C16,3.05187817 13.3085714,0.5 10,0.5 L10,0.5 Z M10,2.12436548 C12.3674286,2.12436548 14.2857143,3.92903553 14.2857143,6.18527919 C14.2857143,8.42690355 12.3674286,14.8756345 10,14.8756345 C7.63428571,14.8756345 5.71428571,8.42690355 5.71428571,6.18527919 C5.71428571,3.92903553 7.63428571,2.12436548 10,2.12436548 L10,2.12436548 Z" id="Fill-6735"></path>
                                <path d="M47.2346548,22.0000244 C46.8121843,22.0000244 46.4693097,21.6513355 46.4693097,21.2095578 C46.4693097,18.9706911 44.8039186,16.4762244 42.5737027,16.4762244 L38.7653452,16.4762244 C38.3428746,16.4762244 38,16.1291133 38,15.6873355 C38,15.2471355 38.3428746,14.9000244 38.7653452,14.9000244 L42.5737027,14.9000244 C45.7713149,14.9000244 48,18.2275578 48,21.2095578 C48,21.6513355 47.6586561,22.0000244 47.2346548,22.0000244" id="Fill-6736"></path>
                                <path d="M9.23465483,22.0000244 C8.8121843,22.0000244 8.46930966,21.6513355 8.46930966,21.2095578 C8.46930966,18.9706911 6.80391857,16.4762244 4.57370274,16.4762244 L0.765345171,16.4762244 C0.342874636,16.4762244 0,16.1291133 0,15.6873355 C0,15.2471355 0.342874636,14.9000244 0.765345171,14.9000244 L4.57370274,14.9000244 C7.77131486,14.9000244 10,18.2275578 10,21.2095578 C10,21.6513355 9.65865605,22.0000244 9.23465483,22.0000244" id="Fill-6736" transform="translate(5.000000, 18.450024) scale(-1, 1) translate(-5.000000, -18.450024) "></path>
                            </g>
                        </g>
                    </g>
                </g>
            </g>
        </g>
    </g>
</svg>