<?xml version="1.0" encoding="UTF-8" standalone="no"?>
<svg width="48px" height="33px" viewBox="0 0 48 33" version="1.1" xmlns="http://www.w3.org/2000/svg" xmlns:xlink="http://www.w3.org/1999/xlink">
    <!-- Generator: sketchtool 39.1 (31720) - http://www.bohemiancoding.com/sketch -->
    <title>1687066D-717F-42C3-98F2-BB653E420CD7</title>
    <desc>Created with sketchtool.</desc>
    <defs>
        <rect id="path-1" x="0" y="0" width="1280" height="472"></rect>
        <filter x="-50%" y="-50%" width="200%" height="200%" filterUnits="objectBoundingBox" id="filter-2">
            <feOffset dx="0" dy="1" in="SourceAlpha" result="shadowOffsetOuter1"></feOffset>
            <feColorMatrix values="0 0 0 0 0.847058824   0 0 0 0 0.847058824   0 0 0 0 0.847058824  0 0 0 1 0" type="matrix" in="shadowOffsetOuter1"></feColorMatrix>
        </filter>
        <rect id="path-3" x="16" y="25" width="48" height="48"></rect>
    </defs>
    <g id="web-1.0" stroke="none" stroke-width="1" fill="none" fill-rule="evenodd">
        <g id="1280px-home" transform="translate(-856.000000, -1407.000000)">
            <g id="help" transform="translate(0.000000, 1208.000000)">
                <g id="background">
                    <use fill="black" fill-opacity="1" filter="url(#filter-2)" xlink:href="#path-1"></use>
                    <use fill="#FFFFFF" fill-rule="evenodd" xlink:href="#path-1"></use>
                </g>
                <g id="chip" transform="translate(840.000000, 167.000000)">
                    <circle id="Oval" stroke="#F4F4F4" stroke-width="2" fill="#FFFFFF" cx="40" cy="49" r="40"></circle>
                    <mask id="mask-4" fill="white">
                        <use xlink:href="#path-3"></use>
                    </mask>
                    <g id="bounds"></g>
                    <g id="laptop" mask="url(#mask-4)" fill="#000000">
                        <g transform="translate(16.000000, 32.000000)" id="shape">
                            <path d="M1.6,28.5 L1.6,29.07 C1.6,30.21 2.4128,31.5 3.5808,31.5 L43.5808,31.5 C44.8448,31.5 46.4,30.1515 46.4,29.07 L46.4,28.5 L1.6,28.5 L1.6,28.5 Z M43.5808,33 L3.5808,33 C1.4384,33 0,30.96 0,29.07 L0,27.7515 C0,27.33 0.3584,27 0.8,27 L47.2,27 C47.6416,27 48,27.33 48,27.7515 L48,29.07 C48,30.975 45.7296,33 43.5808,33 L43.5808,33 Z"></path>
                            <path d="M5.53846154,26.4444444 L42.4615385,26.4444444 L42.4615385,3.31333333 C42.4615385,1.72666667 41.1030769,1.55711111 40.52,1.55711111 L7.26923077,1.55711111 C6.10461538,1.55711111 5.53846154,2.13266667 5.53846154,3.31333333 L5.53846154,26.4444444 L5.53846154,26.4444444 Z M43.2307692,28 L4.76923077,28 C4.34461538,28 4,27.6577778 4,27.2237778 L4,3.31333333 C4,1.26155556 5.25230769,0 7.26923077,0 L40.52,0 C42.6015385,0 44,1.32377778 44,3.31333333 L44,27.2237778 C44,27.6577778 43.6553846,28 43.2307692,28 L43.2307692,28 Z"></path>
                            <path d="M9.6,23.4271123 L38.4,23.4271123 L38.4,4.57131633 L9.6,4.57131633 L9.6,23.4271123 Z M39.2,25 L8.8,25 C8.3584,25 8,24.6527391 8,24.2127705 L8,3.78722948 C8,3.34568959 8.3584,3 8.8,3 L39.2,3 C39.6416,3 40,3.34568959 40,3.78722948 L40,24.2127705 C40,24.6527391 39.6416,25 39.2,25 L39.2,25 Z"></path>
                        </g>
                    </g>
                </g>
            </g>
        </g>
    </g>
</svg>